# xmcd
#
# Track frame offsets: 
#        150
#        15280
#        35722
#        53873
#        69050
#        84357
#        86858
#        107934
#        126260
#        143612
#        159248
#
# Disc length: 2516 seconds
#
# Revision: 0
# Processed by: cddbd v1.5.2PL0 Copyright (c) Steve Scherf et al.
# Submitted via: ExactAudioCopy v1.3
#
DISCID=8409d20b
DTITLE=Frank Foster - Rhythm And Whiskey
DYEAR=2014
DGENRE=Country/rock
TTITLE0=Flyin' Down The Highway
TTITLE1=Southern Man
TTITLE2=Cut Off Jeans
TTITLE3=Outlaw Angel
TTITLE4=Bayou Moon
TTITLE5=Lone Chief Intro
TTITLE6=The Gospel
TTITLE7=Hard Livin'
TTITLE8=Good Ol' Girl
TTITLE9=I Cried
TTITLE10=Livin' The Dream
EXTD=
EXTT0=
EXTT1=
EXTT2=
EXTT3=
EXTT4=
EXTT5=
EXTT6=
EXTT7=
EXTT8=
EXTT9=
EXTT10=
PLAYORDER=
